<?xml version="1.0" encoding="UTF-8" standalone="no"?>
<!-- Created with Inkscape (http://www.inkscape.org/) -->

<svg
   xmlns:dc="http://purl.org/dc/elements/1.1/"
   xmlns:cc="http://creativecommons.org/ns#"
   xmlns:rdf="http://www.w3.org/1999/02/22-rdf-syntax-ns#"
   xmlns:svg="http://www.w3.org/2000/svg"
   xmlns="http://www.w3.org/2000/svg"
   xmlns:sodipodi="http://sodipodi.sourceforge.net/DTD/sodipodi-0.dtd"
   xmlns:inkscape="http://www.inkscape.org/namespaces/inkscape"
   width="250"
   height="100"
   viewBox="0 0 66.145832 26.458334"
   version="1.1"
   id="svg8"
   inkscape:version="0.92.5 (2060ec1f9f, 2020-04-08)"
   sodipodi:docname="logo.svg">
  <defs
     id="defs2" />
  <sodipodi:namedview
     id="base"
     pagecolor="#ffffff"
     bordercolor="#666666"
     borderopacity="1.0"
     inkscape:pageopacity="0.0"
     inkscape:pageshadow="2"
     inkscape:zoom="1.979899"
     inkscape:cx="125.78664"
     inkscape:cy="32.158088"
     inkscape:document-units="px"
     inkscape:current-layer="layer1"
     showgrid="false"
     units="px"
     width="100px"
     inkscape:window-width="2556"
     inkscape:window-height="2724"
     inkscape:window-x="2549"
     inkscape:window-y="0"
     inkscape:window-maximized="0" />
  <metadata
     id="metadata5">
    <rdf:RDF>
      <cc:Work
         rdf:about="">
        <dc:format>image/svg+xml</dc:format>
        <dc:type
           rdf:resource="http://purl.org/dc/dcmitype/StillImage" />
        <dc:title></dc:title>
      </cc:Work>
    </rdf:RDF>
  </metadata>
  <g
     inkscape:label="Ebene 1"
     inkscape:groupmode="layer"
     id="layer1"
     transform="translate(0,-270.54166)">
    <path
       style="fill:#000000;stroke-width:0.05039495"
       d="m 10.754109,292.72607 c -2.5976058,-0.35191 -4.5506139,-1.70741 -5.5937735,-3.88239 -0.6528788,-1.36125 -0.9288515,-2.84065 -0.8648828,-4.63633 0.032041,-0.89833 0.080191,-1.32945 0.214046,-1.91501 0.6872444,-3.00644 2.6668597,-5.15826 5.4172221,-5.88846 0.8652332,-0.2297 1.8844722,-0.31617 2.7675932,-0.23477 1.301889,0.12001 1.841992,0.3295 3.261453,1.26504 0.703339,0.46355 0.884712,0.46026 1.064138,-0.0193 0.05488,-0.14672 0.115154,-0.37926 0.133915,-0.51676 0.05884,-0.43112 0.05508,-0.42638 0.33837,-0.42638 h 0.255538 l -0.03117,0.31497 c -0.01713,0.17323 -0.04662,1.37515 -0.06543,2.67093 l -0.03426,2.35597 h -0.242944 c -0.212098,0 -0.245624,-0.0144 -0.264043,-0.11339 -0.01162,-0.0623 -0.08101,-0.46489 -0.154242,-0.89451 -0.235138,-1.3794 -0.469235,-1.88784 -1.237645,-2.68809 -0.725056,-0.75508 -1.284592,-1.1043 -2.110488,-1.31717 -0.615914,-0.15875 -1.71443,-0.18465 -2.185587,-0.0515 -0.847936,0.23959 -1.5842639,0.77756 -2.1496169,1.57054 -0.5218854,0.732 -0.8614572,1.48332 -1.1152024,2.46745 -0.7506691,2.9114 -0.5429508,6.51971 0.5048841,8.77026 0.553947,1.18977 1.4958432,2.1432 2.4735442,2.50382 1.084793,0.40013 2.547084,0.25814 3.675358,-0.35688 0.219917,-0.11987 0.502856,-0.35425 0.860934,-0.71317 0.463673,-0.46476 0.564224,-0.59717 0.769524,-1.01337 0.258857,-0.52475 0.428294,-1.17423 0.565326,-2.16698 0.044,-0.31875 0.09056,-0.65325 0.103473,-0.74332 0.02277,-0.15874 0.0309,-0.16379 0.26501,-0.16379 h 0.241527 l 0.03446,2.45675 c 0.01894,1.35122 0.04857,2.60983 0.06576,2.79692 l 0.03137,0.34017 h -0.259213 c -0.142567,0 -0.259246,-0.005 -0.25928,-0.0126 -4e-5,-0.007 -0.03345,-0.20237 -0.07429,-0.43431 -0.08976,-0.51004 -0.207107,-0.7659 -0.391376,-0.85331 -0.171929,-0.0816 -0.367683,-0.003 -0.995722,0.40094 -0.93078,0.59824 -1.606934,0.90523 -2.368566,1.07536 -0.513321,0.11465 -1.973583,0.14373 -2.645734,0.0527 z m 44.624722,-0.007 c -1.821209,-0.33999 -2.898391,-1.11267 -3.643633,-2.61362 -0.399255,-0.8041 -0.584128,-1.69182 -0.624955,-3.00084 -0.07758,-2.48751 0.396829,-4.08717 1.555896,-5.24623 0.914134,-0.91414 2.219052,-1.37456 3.871778,-1.3661 2.876862,0.0147 4.683259,1.51913 5.225632,4.35204 0.127803,0.66754 0.127743,2.93015 0,3.59576 -0.361201,1.88068 -1.266892,3.16903 -2.700413,3.84137 -0.463881,0.21757 -0.715813,0.29291 -1.399497,0.41852 -0.64322,0.11818 -1.706397,0.12706 -2.284721,0.0191 z m 1.755063,-0.49933 c 0.657621,-0.30614 1.213617,-1.20121 1.489052,-2.39715 0.197448,-0.85732 0.251623,-1.54712 0.251086,-3.19673 -5.71e-4,-1.25099 -0.01988,-1.74825 -0.08683,-2.21738 -0.236421,-1.65695 -0.671184,-2.65625 -1.388562,-3.19164 -0.349762,-0.26104 -0.584658,-0.32831 -1.044382,-0.2991 -0.430658,0.0273 -0.691752,0.16174 -1.079426,0.55557 -0.313482,0.31847 -0.700236,1.08239 -0.848157,1.6753 -0.466885,1.87138 -0.455358,5.42486 0.02297,7.07407 0.19908,0.68642 0.599759,1.4017 0.964675,1.7221 0.474226,0.41637 1.175114,0.52845 1.719603,0.27496 z m -37.585868,0.0558 v -0.226 l 0.239377,-0.0319 c 0.434736,-0.0579 0.760873,-0.18253 0.929853,-0.35536 0.338765,-0.34647 0.316034,0.17683 0.330873,-7.61827 0.01155,-6.0726 0.0027,-7.11722 -0.06093,-7.42376 -0.147491,-0.70737 -0.433627,-1.00419 -1.073811,-1.11389 l -0.365366,-0.0626 v -0.21581 -0.2158 l 0.944906,0.0311 c 1.168343,0.0384 2.543114,-0.0723 3.326067,-0.26794 l 0.113388,-0.0283 6.71e-4,3.99926 6.72e-4,3.99926 0.139074,-0.25197 c 0.40608,-0.73572 0.821873,-1.16407 1.451974,-1.49579 0.815524,-0.42934 1.821255,-0.61121 2.7545,-0.4981 1.120254,0.13577 1.835993,0.59462 2.233642,1.43195 0.3317,0.69846 0.337214,0.77538 0.371002,5.17308 0.02781,3.61785 0.03802,3.97537 0.11938,4.18259 0.172741,0.43992 0.492658,0.64213 1.15558,0.73041 l 0.239377,0.0319 v 0.22821 0.22821 l -0.440956,-0.0385 c -0.572346,-0.0499 -4.240375,-0.0499 -4.812721,0 l -0.440956,0.0385 v -0.22687 -0.22687 l 0.214181,-0.0331 c 0.657722,-0.10163 0.903567,-0.29827 1.026608,-0.82107 0.10176,-0.43241 0.09886,-8.15448 -0.0034,-8.6362 -0.147021,-0.69364 -0.45975,-1.04785 -1.018164,-1.15322 -0.351992,-0.0664 -0.814605,-0.0396 -1.151698,0.0666 -0.598073,0.18852 -1.152671,0.69652 -1.47764,1.35348 -0.369007,0.746 -0.367495,0.72552 -0.351105,4.7588 0.01431,3.51779 0.01619,3.5775 0.121072,3.80072 0.177907,0.37867 0.442474,0.55526 0.939149,0.62682 l 0.239377,0.0345 v 0.226 0.22599 l -0.516545,-0.0401 c -0.653705,-0.0508 -3.975963,-0.0496 -4.661535,10e-4 l -0.516545,0.0385 v -0.226 z m 13.817984,-0.0163 0.01545,-0.24105 0.327568,-0.0299 c 0.790751,-0.0722 1.06231,-0.38488 1.160933,-1.3369 0.07928,-0.76538 0.03668,-7.84413 -0.04951,-8.23048 -0.0844,-0.37818 -0.272285,-0.72933 -0.468154,-0.87495 -0.199275,-0.14816 -0.600276,-0.2871 -0.82863,-0.2871 -0.165211,0 -0.167401,-0.003 -0.167401,-0.23051 v -0.23053 l 0.743321,0.0351 c 0.860409,0.0406 2.123687,-0.0359 2.994018,-0.18136 0.323208,-0.054 0.600585,-0.0982 0.616391,-0.0982 0.01578,0 0.03486,0.51575 0.04232,1.14611 l 0.01357,1.14611 0.186862,-0.35239 c 0.539968,-1.01829 1.301291,-1.67152 2.256635,-1.93626 1.400526,-0.38811 2.624004,0.42032 2.70971,1.79047 0.0352,0.56247 -0.101008,0.97373 -0.448271,1.3537 -0.342232,0.37445 -0.667597,0.49841 -1.233144,0.46979 -0.935032,-0.0473 -1.486648,-0.62429 -1.417729,-1.48292 0.03473,-0.43231 0.223847,-0.80481 0.568705,-1.11998 0.151213,-0.13821 0.274938,-0.27383 0.274938,-0.30138 0,-0.0788 -0.28136,-0.12055 -0.568973,-0.0845 -0.916284,0.11473 -1.777412,1.0184 -2.210193,2.31938 -0.117257,0.35249 -0.117364,0.35538 -0.134473,3.62844 -0.01894,3.62522 -0.0083,3.79695 0.260167,4.19451 0.274938,0.40714 0.72691,0.60765 1.494386,0.66294 l 0.428361,0.0308 0.01545,0.2408 0.01538,0.2408 -0.972924,-0.0392 c -1.252302,-0.0505 -3.764678,-0.0504 -4.81837,1.9e-4 l -0.821745,0.0394 0.01545,-0.24104 z m 10.371591,0.0201 c 0,-0.25319 -0.0667,-0.21788 0.593115,-0.31397 0.419796,-0.0611 0.746686,-0.35753 0.881045,-0.79887 0.0481,-0.158 0.06287,-1.19594 0.06287,-4.41454 0,-3.94148 -0.006,-4.22713 -0.09265,-4.51035 -0.191288,-0.6243 -0.440888,-0.84476 -1.066515,-0.94202 l -0.377881,-0.0588 v -0.24833 c 0,-0.20365 0.01404,-0.24294 0.07815,-0.21834 0.183415,0.0704 1.514081,0.0902 2.284526,0.034 0.767456,-0.0559 1.590168,-0.15741 1.893003,-0.23342 l 0.128683,-0.0323 3.82e-4,5.03236 c 1.89e-4,3.21391 0.01921,5.15073 0.05239,5.35992 0.101861,0.64118 0.426339,0.9527 1.106396,1.06222 0.358569,0.0578 0.401143,0.0938 0.402278,0.34095 l 6.72e-4,0.16849 -0.491349,-0.0387 c -0.270243,-0.0213 -1.387118,-0.0387 -2.481954,-0.0387 -1.094828,0 -2.211703,0.0174 -2.481946,0.0387 l -0.491356,0.0387 v -0.22705 z m 2.35278,-14.04886 c -0.574616,-0.084 -1.103918,-0.50528 -1.272467,-1.01273 -0.129711,-0.39052 -0.08452,-1.05922 0.09193,-1.36031 0.373649,-0.63758 1.144631,-0.94412 2.028833,-0.80666 0.595702,0.0926 1.004515,0.35209 1.270909,0.80666 0.176449,0.30109 0.221643,0.96979 0.09193,1.36031 -0.175106,0.5272 -0.691611,0.92499 -1.318743,1.01564 -0.394862,0.0571 -0.484181,0.0568 -0.892397,-0.003 z"
       id="path37"
       inkscape:connector-curvature="0" />
  </g>
</svg>
