<?xml version="1.0" encoding="UTF-8" standalone="no"?>
<!-- Created with Inkscape (http://www.inkscape.org/) -->

<svg
   xmlns:dc="http://purl.org/dc/elements/1.1/"
   xmlns:cc="http://creativecommons.org/ns#"
   xmlns:rdf="http://www.w3.org/1999/02/22-rdf-syntax-ns#"
   xmlns:svg="http://www.w3.org/2000/svg"
   xmlns="http://www.w3.org/2000/svg"
   xmlns:sodipodi="http://sodipodi.sourceforge.net/DTD/sodipodi-0.dtd"
   xmlns:inkscape="http://www.inkscape.org/namespaces/inkscape"
   width="100"
   height="100"
   viewBox="0 0 26.458333 26.458334"
   version="1.1"
   id="svg8"
   inkscape:version="0.92.5 (2060ec1f9f, 2020-04-08)"
   sodipodi:docname="logo-mobile.svg">
  <defs
     id="defs2" />
  <sodipodi:namedview
     id="base"
     pagecolor="#ffffff"
     bordercolor="#666666"
     borderopacity="1.0"
     inkscape:pageopacity="0.0"
     inkscape:pageshadow="2"
     inkscape:zoom="5.6"
     inkscape:cx="116.85191"
     inkscape:cy="34.804904"
     inkscape:document-units="px"
     inkscape:current-layer="layer1"
     showgrid="false"
     units="px"
     width="100px"
     inkscape:window-width="2556"
     inkscape:window-height="2724"
     inkscape:window-x="2549"
     inkscape:window-y="0"
     inkscape:window-maximized="0" />
  <metadata
     id="metadata5">
    <rdf:RDF>
      <cc:Work
         rdf:about="">
        <dc:format>image/svg+xml</dc:format>
        <dc:type
           rdf:resource="http://purl.org/dc/dcmitype/StillImage" />
        <dc:title></dc:title>
      </cc:Work>
    </rdf:RDF>
  </metadata>
  <g
     inkscape:label="Ebene 1"
     inkscape:groupmode="layer"
     id="layer1"
     transform="translate(0,-270.54166)">
    <path
       style="fill:#000000;stroke-width:0.05039495"
       d="m 12.965913,292.03738 c -2.597606,-0.35191 -4.5506138,-1.70741 -5.5937734,-3.88239 -0.6528788,-1.36125 -0.9288515,-2.84065 -0.8648828,-4.63633 0.032041,-0.89833 0.080191,-1.32945 0.214046,-1.91501 0.6872444,-3.00644 2.6668597,-5.15826 5.4172222,-5.88846 0.865233,-0.2297 1.884472,-0.31617 2.767593,-0.23477 1.301889,0.12001 1.841992,0.3295 3.261453,1.26504 0.703339,0.46355 0.884712,0.46026 1.064138,-0.0193 0.05488,-0.14672 0.115154,-0.37926 0.133915,-0.51676 0.05884,-0.43112 0.05508,-0.42638 0.33837,-0.42638 h 0.255538 l -0.03117,0.31497 c -0.01713,0.17323 -0.04662,1.37515 -0.06543,2.67093 l -0.03426,2.35597 h -0.242944 c -0.212098,0 -0.245624,-0.0144 -0.264043,-0.11339 -0.01162,-0.0623 -0.08101,-0.46489 -0.154242,-0.89451 -0.235138,-1.3794 -0.469235,-1.88784 -1.237645,-2.68809 -0.725056,-0.75508 -1.284592,-1.1043 -2.110488,-1.31717 -0.615914,-0.15875 -1.71443,-0.18465 -2.185587,-0.0515 -0.847936,0.23959 -1.584264,0.77756 -2.149617,1.57054 -0.521885,0.732 -0.861457,1.48332 -1.115202,2.46745 -0.7506693,2.9114 -0.542951,6.51971 0.504884,8.77026 0.553947,1.18977 1.495843,2.1432 2.473544,2.50382 1.084793,0.40013 2.547084,0.25814 3.675358,-0.35688 0.219917,-0.11987 0.502856,-0.35425 0.860934,-0.71317 0.463673,-0.46476 0.564224,-0.59717 0.769524,-1.01337 0.258857,-0.52475 0.428294,-1.17423 0.565326,-2.16698 0.044,-0.31875 0.09056,-0.65325 0.103473,-0.74332 0.02277,-0.15874 0.0309,-0.16379 0.26501,-0.16379 h 0.241527 l 0.03446,2.45675 c 0.01894,1.35122 0.04857,2.60983 0.06576,2.79692 l 0.03137,0.34017 h -0.259213 c -0.142567,0 -0.259246,-0.005 -0.25928,-0.0126 -4e-5,-0.007 -0.03345,-0.20237 -0.07429,-0.43431 -0.08976,-0.51004 -0.207107,-0.7659 -0.391376,-0.85331 -0.171929,-0.0816 -0.367683,-0.003 -0.995722,0.40094 -0.93078,0.59824 -1.606934,0.90523 -2.368566,1.07536 -0.513321,0.11465 -1.973583,0.14373 -2.645734,0.0527 z"
       id="path37"
       inkscape:connector-curvature="0"
       sodipodi:nodetypes="cscccccccsccccsccccccssccccccsccccsccccccc" />
  </g>
</svg>
